<mxfile host="app.diagrams.net" modified="2024-03-07T10:53:52.002Z" agent="Mozilla/5.0 (Macintosh; Intel Mac OS X 10_15_7) AppleWebKit/537.36 (KHTML, like Gecko) Chrome/122.0.0.0 Safari/537.36" etag="-OgV4Wtn8b8sLuSQF_1L" version="24.0.2" type="google">
  <diagram name="Page-1" id="TFrdZGG6V2xTVUQVYgAW">
    <mxGraphModel grid="1" page="1" gridSize="10" guides="1" tooltips="1" connect="1" arrows="1" fold="1" pageScale="1" pageWidth="850" pageHeight="1100" math="0" shadow="0">
      <root>
        <mxCell id="0" />
        <mxCell id="1" parent="0" />
        <mxCell id="tNPkLoMmBH56HrIBaQWF-62" value="" style="rounded=1;whiteSpace=wrap;html=1;labelBackgroundColor=none;fillStyle=auto;fillColor=#dae8fc;strokeColor=#6c8ebf;" vertex="1" parent="1">
          <mxGeometry x="230" y="1059" width="380" height="80" as="geometry" />
        </mxCell>
        <mxCell id="tNPkLoMmBH56HrIBaQWF-10" value="" style="rounded=1;whiteSpace=wrap;html=1;labelBackgroundColor=none;fillStyle=auto;fillColor=#f8cecc;strokeColor=#b85450;" vertex="1" parent="1">
          <mxGeometry x="550" y="224" width="220" height="196" as="geometry" />
        </mxCell>
        <mxCell id="tNPkLoMmBH56HrIBaQWF-9" value="" style="rounded=1;whiteSpace=wrap;html=1;labelBackgroundColor=none;fillStyle=auto;fillColor=#f8cecc;strokeColor=#b85450;" vertex="1" parent="1">
          <mxGeometry x="310" y="224" width="220" height="426" as="geometry" />
        </mxCell>
        <mxCell id="tNPkLoMmBH56HrIBaQWF-40" style="edgeStyle=orthogonalEdgeStyle;rounded=0;orthogonalLoop=1;jettySize=auto;html=1;exitX=0.5;exitY=0;exitDx=0;exitDy=0;entryX=0.5;entryY=0;entryDx=0;entryDy=0;" edge="1" parent="1" source="tNPkLoMmBH56HrIBaQWF-8" target="tNPkLoMmBH56HrIBaQWF-39">
          <mxGeometry relative="1" as="geometry" />
        </mxCell>
        <mxCell id="tNPkLoMmBH56HrIBaQWF-8" value="" style="rounded=1;whiteSpace=wrap;html=1;labelBackgroundColor=none;fillStyle=auto;fillColor=#f8cecc;strokeColor=#b85450;" vertex="1" parent="1">
          <mxGeometry x="70" y="224" width="220" height="426" as="geometry" />
        </mxCell>
        <mxCell id="tNPkLoMmBH56HrIBaQWF-37" value="" style="edgeStyle=orthogonalEdgeStyle;rounded=0;orthogonalLoop=1;jettySize=auto;html=1;strokeWidth=2;" edge="1" parent="1" source="tNPkLoMmBH56HrIBaQWF-7" target="tNPkLoMmBH56HrIBaQWF-43">
          <mxGeometry relative="1" as="geometry">
            <mxPoint x="420" y="234" as="targetPoint" />
          </mxGeometry>
        </mxCell>
        <mxCell id="tNPkLoMmBH56HrIBaQWF-7" value="" style="rounded=1;whiteSpace=wrap;html=1;labelBackgroundColor=none;fillStyle=auto;fillColor=#ffe6cc;strokeColor=#d79b00;" vertex="1" parent="1">
          <mxGeometry x="230" y="111" width="380" height="80" as="geometry" />
        </mxCell>
        <mxCell id="tNPkLoMmBH56HrIBaQWF-6" value="" style="rounded=1;whiteSpace=wrap;html=1;labelBackgroundColor=none;fillStyle=auto;fillColor=#dae8fc;strokeColor=#6c8ebf;" vertex="1" parent="1">
          <mxGeometry x="230" y="10" width="380" height="80" as="geometry" />
        </mxCell>
        <mxCell id="tNPkLoMmBH56HrIBaQWF-11" style="edgeStyle=orthogonalEdgeStyle;rounded=0;orthogonalLoop=1;jettySize=auto;html=1;exitX=0.5;exitY=1;exitDx=0;exitDy=0;entryX=0.5;entryY=0;entryDx=0;entryDy=0;strokeWidth=2;" edge="1" parent="1">
          <mxGeometry relative="1" as="geometry">
            <mxPoint x="420" y="80" as="sourcePoint" />
            <mxPoint x="420" y="121" as="targetPoint" />
          </mxGeometry>
        </mxCell>
        <mxCell id="tNPkLoMmBH56HrIBaQWF-23" style="edgeStyle=orthogonalEdgeStyle;rounded=0;orthogonalLoop=1;jettySize=auto;html=1;exitX=0.5;exitY=1;exitDx=0;exitDy=0;" edge="1" parent="1" source="tNPkLoMmBH56HrIBaQWF-10" target="tNPkLoMmBH56HrIBaQWF-10">
          <mxGeometry relative="1" as="geometry" />
        </mxCell>
        <mxCell id="tNPkLoMmBH56HrIBaQWF-28" value="" style="rounded=1;whiteSpace=wrap;html=1;labelBackgroundColor=none;fillStyle=auto;fillColor=#ffe6cc;strokeColor=#d79b00;" vertex="1" parent="1">
          <mxGeometry x="110" y="740" width="620" height="290" as="geometry" />
        </mxCell>
        <mxCell id="tNPkLoMmBH56HrIBaQWF-29" style="edgeStyle=orthogonalEdgeStyle;rounded=0;orthogonalLoop=1;jettySize=auto;html=1;exitX=0.5;exitY=1;exitDx=0;exitDy=0;" edge="1" parent="1">
          <mxGeometry relative="1" as="geometry">
            <mxPoint x="420" y="402" as="sourcePoint" />
            <mxPoint x="420" y="402" as="targetPoint" />
          </mxGeometry>
        </mxCell>
        <mxCell id="tNPkLoMmBH56HrIBaQWF-57" style="edgeStyle=orthogonalEdgeStyle;rounded=0;orthogonalLoop=1;jettySize=auto;html=1;exitX=0.5;exitY=1;exitDx=0;exitDy=0;strokeWidth=2;" edge="1" parent="1" source="tNPkLoMmBH56HrIBaQWF-30" target="tNPkLoMmBH56HrIBaQWF-52">
          <mxGeometry relative="1" as="geometry" />
        </mxCell>
        <mxCell id="tNPkLoMmBH56HrIBaQWF-59" style="edgeStyle=orthogonalEdgeStyle;rounded=0;orthogonalLoop=1;jettySize=auto;html=1;exitX=1;exitY=0.5;exitDx=0;exitDy=0;strokeWidth=2;" edge="1" parent="1" source="tNPkLoMmBH56HrIBaQWF-30" target="tNPkLoMmBH56HrIBaQWF-58">
          <mxGeometry relative="1" as="geometry" />
        </mxCell>
        <mxCell id="tNPkLoMmBH56HrIBaQWF-30" value="&lt;span style=&quot;font-size: 18px;&quot;&gt;Not fraud &amp;amp; verified?&lt;/span&gt;" style="rhombus;whiteSpace=wrap;html=1;" vertex="1" parent="1">
          <mxGeometry x="170" y="766" width="260" height="80" as="geometry" />
        </mxCell>
        <mxCell id="tNPkLoMmBH56HrIBaQWF-33" value="&lt;span style=&quot;font-size: 18px;&quot;&gt;Pushed the submit button&lt;/span&gt;" style="rounded=1;whiteSpace=wrap;html=1;arcSize=42;" vertex="1" parent="1">
          <mxGeometry x="305" y="20" width="230" height="60" as="geometry" />
        </mxCell>
        <mxCell id="tNPkLoMmBH56HrIBaQWF-65" style="edgeStyle=orthogonalEdgeStyle;rounded=0;orthogonalLoop=1;jettySize=auto;html=1;exitX=0.5;exitY=1;exitDx=0;exitDy=0;entryX=0.5;entryY=0;entryDx=0;entryDy=0;strokeWidth=2;" edge="1" parent="1" source="tNPkLoMmBH56HrIBaQWF-34" target="tNPkLoMmBH56HrIBaQWF-44">
          <mxGeometry relative="1" as="geometry" />
        </mxCell>
        <mxCell id="tNPkLoMmBH56HrIBaQWF-93" style="edgeStyle=orthogonalEdgeStyle;rounded=0;orthogonalLoop=1;jettySize=auto;html=1;exitX=0.5;exitY=1;exitDx=0;exitDy=0;entryX=0.5;entryY=0;entryDx=0;entryDy=0;" edge="1" parent="1" source="tNPkLoMmBH56HrIBaQWF-34" target="tNPkLoMmBH56HrIBaQWF-39">
          <mxGeometry relative="1" as="geometry" />
        </mxCell>
        <mxCell id="tNPkLoMmBH56HrIBaQWF-34" value="&lt;span style=&quot;font-size: 18px;&quot;&gt;checkout&lt;/span&gt;" style="shape=process;whiteSpace=wrap;html=1;backgroundOutline=1;" vertex="1" parent="1">
          <mxGeometry x="360" y="121" width="120" height="60" as="geometry" />
        </mxCell>
        <mxCell id="tNPkLoMmBH56HrIBaQWF-39" value="&lt;span style=&quot;font-size: 18px;&quot;&gt;DetectFraud&lt;/span&gt;" style="shape=process;whiteSpace=wrap;html=1;backgroundOutline=1;" vertex="1" parent="1">
          <mxGeometry x="99" y="234" width="160" height="60" as="geometry" />
        </mxCell>
        <mxCell id="tNPkLoMmBH56HrIBaQWF-43" value="&lt;span style=&quot;font-size: 18px;&quot;&gt;VerifyTransaction&lt;/span&gt;" style="shape=process;whiteSpace=wrap;html=1;backgroundOutline=1;" vertex="1" parent="1">
          <mxGeometry x="325" y="230" width="190" height="64" as="geometry" />
        </mxCell>
        <mxCell id="tNPkLoMmBH56HrIBaQWF-44" value="&lt;span style=&quot;font-size: 18px;&quot;&gt;SuggestBook&lt;/span&gt;" style="shape=process;whiteSpace=wrap;html=1;backgroundOutline=1;" vertex="1" parent="1">
          <mxGeometry x="573" y="234" width="170" height="60" as="geometry" />
        </mxCell>
        <mxCell id="tNPkLoMmBH56HrIBaQWF-54" style="edgeStyle=orthogonalEdgeStyle;rounded=0;orthogonalLoop=1;jettySize=auto;html=1;exitX=0.75;exitY=1;exitDx=0;exitDy=0;entryX=1;entryY=0.5;entryDx=0;entryDy=0;strokeWidth=2;" edge="1" parent="1" source="tNPkLoMmBH56HrIBaQWF-46" target="tNPkLoMmBH56HrIBaQWF-52">
          <mxGeometry relative="1" as="geometry" />
        </mxCell>
        <mxCell id="tNPkLoMmBH56HrIBaQWF-46" value="&lt;span style=&quot;font-size: 14px;&quot;&gt;Randomly pick up books&lt;/span&gt;&lt;br style=&quot;font-size: 14px;&quot;&gt;&lt;span style=&quot;font-size: 14px;&quot;&gt;from a static book list.&lt;/span&gt;" style="rounded=0;whiteSpace=wrap;html=1;" vertex="1" parent="1">
          <mxGeometry x="560.5" y="313" width="195" height="60" as="geometry" />
        </mxCell>
        <mxCell id="tNPkLoMmBH56HrIBaQWF-64" style="edgeStyle=orthogonalEdgeStyle;rounded=0;orthogonalLoop=1;jettySize=auto;html=1;exitX=0.5;exitY=1;exitDx=0;exitDy=0;strokeWidth=2;" edge="1" parent="1" source="tNPkLoMmBH56HrIBaQWF-52" target="tNPkLoMmBH56HrIBaQWF-63">
          <mxGeometry relative="1" as="geometry" />
        </mxCell>
        <mxCell id="tNPkLoMmBH56HrIBaQWF-52" value="Return order status response with suggested books" style="rounded=0;whiteSpace=wrap;html=1;fontSize=18;" vertex="1" parent="1">
          <mxGeometry x="200" y="900" width="200" height="90" as="geometry" />
        </mxCell>
        <mxCell id="tNPkLoMmBH56HrIBaQWF-55" value="Yes" style="text;strokeColor=none;align=center;fillColor=none;html=1;verticalAlign=middle;whiteSpace=wrap;rounded=0;fontSize=16;" vertex="1" parent="1">
          <mxGeometry x="245" y="846" width="60" height="30" as="geometry" />
        </mxCell>
        <mxCell id="tNPkLoMmBH56HrIBaQWF-58" value="Reject" style="rounded=0;whiteSpace=wrap;html=1;fontSize=18;" vertex="1" parent="1">
          <mxGeometry x="480" y="776" width="120" height="60" as="geometry" />
        </mxCell>
        <mxCell id="tNPkLoMmBH56HrIBaQWF-60" value="No" style="text;strokeColor=none;align=center;fillColor=none;html=1;verticalAlign=middle;whiteSpace=wrap;rounded=0;fontSize=16;" vertex="1" parent="1">
          <mxGeometry x="420" y="779" width="60" height="30" as="geometry" />
        </mxCell>
        <mxCell id="tNPkLoMmBH56HrIBaQWF-61" style="edgeStyle=orthogonalEdgeStyle;rounded=0;orthogonalLoop=1;jettySize=auto;html=1;exitX=0.5;exitY=1;exitDx=0;exitDy=0;" edge="1" parent="1" source="tNPkLoMmBH56HrIBaQWF-28" target="tNPkLoMmBH56HrIBaQWF-28">
          <mxGeometry relative="1" as="geometry" />
        </mxCell>
        <mxCell id="tNPkLoMmBH56HrIBaQWF-63" value="&lt;span style=&quot;font-size: 18px;&quot;&gt;Display order confirmed page&lt;/span&gt;" style="rounded=1;whiteSpace=wrap;html=1;arcSize=42;" vertex="1" parent="1">
          <mxGeometry x="305" y="1069" width="245" height="60" as="geometry" />
        </mxCell>
        <mxCell id="tNPkLoMmBH56HrIBaQWF-81" style="edgeStyle=orthogonalEdgeStyle;rounded=0;orthogonalLoop=1;jettySize=auto;html=1;exitX=0.5;exitY=1;exitDx=0;exitDy=0;entryX=0.5;entryY=0;entryDx=0;entryDy=0;" edge="1" parent="1" source="tNPkLoMmBH56HrIBaQWF-66" target="tNPkLoMmBH56HrIBaQWF-67">
          <mxGeometry relative="1" as="geometry" />
        </mxCell>
        <mxCell id="tNPkLoMmBH56HrIBaQWF-66" value="&lt;font style=&quot;font-size: 14px;&quot;&gt;the order items are &lt;br&gt;not empty?&lt;/font&gt;" style="rhombus;whiteSpace=wrap;html=1;fontSize=18;" vertex="1" parent="1">
          <mxGeometry x="320.5" y="309.5" width="200" height="80" as="geometry" />
        </mxCell>
        <mxCell id="tNPkLoMmBH56HrIBaQWF-82" style="edgeStyle=orthogonalEdgeStyle;rounded=0;orthogonalLoop=1;jettySize=auto;html=1;exitX=0.5;exitY=1;exitDx=0;exitDy=0;entryX=0.5;entryY=0;entryDx=0;entryDy=0;" edge="1" parent="1" source="tNPkLoMmBH56HrIBaQWF-67" target="tNPkLoMmBH56HrIBaQWF-68">
          <mxGeometry relative="1" as="geometry" />
        </mxCell>
        <mxCell id="tNPkLoMmBH56HrIBaQWF-67" value="&lt;font style=&quot;font-size: 14px;&quot;&gt;the user data is&lt;br&gt;all filled in?&lt;/font&gt;" style="rhombus;whiteSpace=wrap;html=1;fontSize=18;" vertex="1" parent="1">
          <mxGeometry x="319.5" y="406.5" width="200" height="80" as="geometry" />
        </mxCell>
        <mxCell id="tNPkLoMmBH56HrIBaQWF-73" style="edgeStyle=orthogonalEdgeStyle;rounded=0;orthogonalLoop=1;jettySize=auto;html=1;exitX=0.5;exitY=1;exitDx=0;exitDy=0;strokeWidth=2;" edge="1" parent="1" source="tNPkLoMmBH56HrIBaQWF-68" target="tNPkLoMmBH56HrIBaQWF-30">
          <mxGeometry relative="1" as="geometry">
            <Array as="points">
              <mxPoint x="421" y="610" />
              <mxPoint x="300" y="610" />
            </Array>
          </mxGeometry>
        </mxCell>
        <mxCell id="tNPkLoMmBH56HrIBaQWF-68" value="&lt;font style=&quot;font-size: 14px;&quot;&gt;the credit card info is &lt;br&gt;in the correct format?&lt;/font&gt;" style="rhombus;whiteSpace=wrap;html=1;fontSize=18;" vertex="1" parent="1">
          <mxGeometry x="320.5" y="506.5" width="200" height="90" as="geometry" />
        </mxCell>
        <mxCell id="tNPkLoMmBH56HrIBaQWF-83" style="edgeStyle=orthogonalEdgeStyle;rounded=0;orthogonalLoop=1;jettySize=auto;html=1;exitX=0.5;exitY=1;exitDx=0;exitDy=0;entryX=0.5;entryY=0;entryDx=0;entryDy=0;" edge="1" parent="1" source="tNPkLoMmBH56HrIBaQWF-69" target="tNPkLoMmBH56HrIBaQWF-70">
          <mxGeometry relative="1" as="geometry" />
        </mxCell>
        <mxCell id="tNPkLoMmBH56HrIBaQWF-69" value="the user data &lt;br&gt;is not fraud?" style="rhombus;whiteSpace=wrap;html=1;fontSize=14;" vertex="1" parent="1">
          <mxGeometry x="79.5" y="309.5" width="200" height="80" as="geometry" />
        </mxCell>
        <mxCell id="tNPkLoMmBH56HrIBaQWF-86" style="edgeStyle=orthogonalEdgeStyle;rounded=0;orthogonalLoop=1;jettySize=auto;html=1;exitX=0.5;exitY=1;exitDx=0;exitDy=0;entryX=0.5;entryY=0;entryDx=0;entryDy=0;strokeWidth=2;" edge="1" parent="1" source="tNPkLoMmBH56HrIBaQWF-70" target="tNPkLoMmBH56HrIBaQWF-30">
          <mxGeometry relative="1" as="geometry">
            <Array as="points">
              <mxPoint x="179" y="610" />
              <mxPoint x="300" y="610" />
            </Array>
          </mxGeometry>
        </mxCell>
        <mxCell id="tNPkLoMmBH56HrIBaQWF-70" value="the credit card info&lt;br&gt;is not fraud?" style="rhombus;whiteSpace=wrap;html=1;fontSize=14;" vertex="1" parent="1">
          <mxGeometry x="78.5" y="406.5" width="200" height="80" as="geometry" />
        </mxCell>
        <mxCell id="tNPkLoMmBH56HrIBaQWF-85" value="Suggested Books" style="text;strokeColor=none;align=center;fillColor=none;html=1;verticalAlign=middle;whiteSpace=wrap;rounded=0;fontSize=16;" vertex="1" parent="1">
          <mxGeometry x="437" y="916" width="130" height="30" as="geometry" />
        </mxCell>
        <mxCell id="tNPkLoMmBH56HrIBaQWF-87" value="frontend&lt;span style=&quot;color: rgba(0, 0, 0, 0); font-family: monospace; font-size: 0px; text-align: start; text-wrap: nowrap;&quot;&gt;%3CmxGraphModel%3E%3Croot%3E%3CmxCell%20id%3D%220%22%2F%3E%3CmxCell%20id%3D%221%22%20parent%3D%220%22%2F%3E%3CmxCell%20id%3D%222%22%20value%3D%22No%22%20style%3D%22text%3BstrokeColor%3Dnone%3Balign%3Dcenter%3BfillColor%3Dnone%3Bhtml%3D1%3BverticalAlign%3Dmiddle%3BwhiteSpace%3Dwrap%3Brounded%3D0%3BfontSize%3D16%3B%22%20vertex%3D%221%22%20parent%3D%221%22%3E%3CmxGeometry%20x%3D%22420%22%20y%3D%22709%22%20width%3D%2260%22%20height%3D%2230%22%20as%3D%22geometry%22%2F%3E%3C%2FmxCell%3E%3C%2Froot%3E%3C%2FmxGraphModel%3E&lt;/span&gt;" style="text;strokeColor=none;align=center;fillColor=none;html=1;verticalAlign=middle;whiteSpace=wrap;rounded=0;fontSize=16;" vertex="1" parent="1">
          <mxGeometry x="219.5" y="10" width="100" height="30" as="geometry" />
        </mxCell>
        <mxCell id="tNPkLoMmBH56HrIBaQWF-88" value="orchestrator" style="text;strokeColor=none;align=center;fillColor=none;html=1;verticalAlign=middle;whiteSpace=wrap;rounded=0;fontSize=16;" vertex="1" parent="1">
          <mxGeometry x="230" y="111" width="110" height="30" as="geometry" />
        </mxCell>
        <mxCell id="tNPkLoMmBH56HrIBaQWF-89" value="fraud_detection" style="text;strokeColor=none;align=center;fillColor=none;html=1;verticalAlign=middle;whiteSpace=wrap;rounded=0;fontSize=16;" vertex="1" parent="1">
          <mxGeometry x="90" y="620" width="100" height="30" as="geometry" />
        </mxCell>
        <mxCell id="tNPkLoMmBH56HrIBaQWF-90" value="transaction_verification" style="text;strokeColor=none;align=center;fillColor=none;html=1;verticalAlign=middle;whiteSpace=wrap;rounded=0;fontSize=16;" vertex="1" parent="1">
          <mxGeometry x="350" y="617" width="100" height="30" as="geometry" />
        </mxCell>
        <mxCell id="tNPkLoMmBH56HrIBaQWF-94" value="book_suggestion" style="text;strokeColor=none;align=center;fillColor=none;html=1;verticalAlign=middle;whiteSpace=wrap;rounded=0;fontSize=16;" vertex="1" parent="1">
          <mxGeometry x="573" y="389.5" width="100" height="30" as="geometry" />
        </mxCell>
        <mxCell id="tNPkLoMmBH56HrIBaQWF-95" value="orchestrator" style="text;strokeColor=none;align=center;fillColor=none;html=1;verticalAlign=middle;whiteSpace=wrap;rounded=0;fontSize=16;" vertex="1" parent="1">
          <mxGeometry x="120" y="746" width="110" height="30" as="geometry" />
        </mxCell>
        <mxCell id="tNPkLoMmBH56HrIBaQWF-96" value="frontend&lt;span style=&quot;color: rgba(0, 0, 0, 0); font-family: monospace; font-size: 0px; text-align: start; text-wrap: nowrap;&quot;&gt;%3CmxGraphModel%3E%3Croot%3E%3CmxCell%20id%3D%220%22%2F%3E%3CmxCell%20id%3D%221%22%20parent%3D%220%22%2F%3E%3CmxCell%20id%3D%222%22%20value%3D%22No%22%20style%3D%22text%3BstrokeColor%3Dnone%3Balign%3Dcenter%3BfillColor%3Dnone%3Bhtml%3D1%3BverticalAlign%3Dmiddle%3BwhiteSpace%3Dwrap%3Brounded%3D0%3BfontSize%3D16%3B%22%20vertex%3D%221%22%20parent%3D%221%22%3E%3CmxGeometry%20x%3D%22420%22%20y%3D%22709%22%20width%3D%2260%22%20height%3D%2230%22%20as%3D%22geometry%22%2F%3E%3C%2FmxCell%3E%3C%2Froot%3E%3C%2FmxGraphModel%3E&lt;/span&gt;" style="text;strokeColor=none;align=center;fillColor=none;html=1;verticalAlign=middle;whiteSpace=wrap;rounded=0;fontSize=16;" vertex="1" parent="1">
          <mxGeometry x="219.5" y="1059" width="100" height="30" as="geometry" />
        </mxCell>
      </root>
    </mxGraphModel>
  </diagram>
</mxfile>
